<mxfile host="Electron" modified="2024-03-05T06:39:00.162Z" agent="Mozilla/5.0 (X11; Linux x86_64) AppleWebKit/537.36 (KHTML, like Gecko) draw.io/21.2.8 Chrome/112.0.5615.165 Electron/24.2.0 Safari/537.36" etag="Njzv8_AloI3mOZrPy6tX" version="21.2.8" type="device">
  <diagram id="prtHgNgQTEPvFCAcTncT" name="Page-1">
    <mxGraphModel dx="1399" dy="1153" grid="1" gridSize="10" guides="1" tooltips="1" connect="1" arrows="1" fold="1" page="1" pageScale="1" pageWidth="1100" pageHeight="850" math="0" shadow="0">
      <root>
        <mxCell id="0" />
        <mxCell id="1" parent="0" />
        <mxCell id="JYJCYZzagZn8szXr--cS-20" value="&lt;font style=&quot;font-size: 18px;&quot;&gt;&lt;b&gt;ROOT&lt;br&gt;namespace&lt;/b&gt;&lt;/font&gt;" style="shape=cylinder3;whiteSpace=wrap;html=1;boundedLbl=1;backgroundOutline=1;size=15;fillColor=#00293D;fillStyle=auto;shadow=0;gradientColor=none;gradientDirection=north;horizontal=1;verticalAlign=top;direction=south;strokeColor=none;" vertex="1" parent="1">
          <mxGeometry x="90" y="120" width="920" height="120" as="geometry" />
        </mxCell>
        <mxCell id="JYJCYZzagZn8szXr--cS-82" value="&lt;font size=&quot;1&quot;&gt;&lt;b style=&quot;font-size: 19px;&quot;&gt;Multi-Tenant Namespaces&lt;/b&gt;&lt;/font&gt;" style="shape=cylinder3;whiteSpace=wrap;html=1;boundedLbl=1;backgroundOutline=1;size=15;direction=south;fillColor=#FF0000;fontColor=#FFFFFF;strokeColor=none;gradientColor=#4F0000;gradientDirection=east;verticalAlign=top;" vertex="1" parent="1">
          <mxGeometry x="110" y="180" width="870" height="60" as="geometry" />
        </mxCell>
        <mxCell id="JYJCYZzagZn8szXr--cS-83" value="" style="group" vertex="1" connectable="0" parent="1">
          <mxGeometry x="130" y="220" width="230" height="390" as="geometry" />
        </mxCell>
        <mxCell id="JYJCYZzagZn8szXr--cS-58" value="&lt;font style=&quot;font-size: 20px;&quot;&gt;&lt;b&gt;&quot;nextgen&quot;&lt;/b&gt;&lt;br&gt;&lt;/font&gt;" style="shape=cube;whiteSpace=wrap;html=1;boundedLbl=1;backgroundOutline=1;darkOpacity=0.05;darkOpacity2=0.1;fillColor=#006699;gradientColor=#00293D;gradientDirection=south;shadow=0;verticalAlign=top;" vertex="1" parent="JYJCYZzagZn8szXr--cS-83">
          <mxGeometry width="230" height="390" as="geometry" />
        </mxCell>
        <mxCell id="JYJCYZzagZn8szXr--cS-16" value="&lt;font style=&quot;font-size: 18px;&quot;&gt;Authentication&lt;br&gt;&lt;/font&gt;" style="swimlane;childLayout=stackLayout;horizontal=1;startSize=50;horizontalStack=0;rounded=1;fontSize=14;fontStyle=1;strokeWidth=2;resizeParent=0;resizeLast=1;shadow=0;dashed=0;align=center;arcSize=4;whiteSpace=wrap;html=1;fillColor=#006699;swimlaneFillColor=none;strokeColor=default;gradientColor=default;gradientDirection=south;verticalAlign=middle;fontColor=#000000;" vertex="1" parent="JYJCYZzagZn8szXr--cS-83">
          <mxGeometry x="45" y="100" width="160" height="120" as="geometry" />
        </mxCell>
        <mxCell id="JYJCYZzagZn8szXr--cS-17" value="&lt;font style=&quot;font-size: 14px;&quot;&gt;approle&lt;br&gt;k8s/jwt/serviceaccounts&lt;br&gt;certificate (needed?)&lt;/font&gt;" style="align=left;strokeColor=none;fillColor=none;spacingLeft=4;fontSize=12;verticalAlign=top;resizable=0;rotatable=0;part=1;html=1;" vertex="1" parent="JYJCYZzagZn8szXr--cS-16">
          <mxGeometry y="50" width="160" height="70" as="geometry" />
        </mxCell>
        <mxCell id="JYJCYZzagZn8szXr--cS-54" value="&lt;font style=&quot;font-size: 18px;&quot;&gt;Secret Engines&lt;/font&gt;" style="swimlane;childLayout=stackLayout;horizontal=1;startSize=50;horizontalStack=0;rounded=1;fontSize=14;fontStyle=1;strokeWidth=2;resizeParent=0;resizeLast=1;shadow=0;dashed=0;align=center;arcSize=4;whiteSpace=wrap;html=1;fillColor=#006699;swimlaneFillColor=none;strokeColor=default;gradientColor=default;gradientDirection=south;verticalAlign=middle;fontColor=#000000;" vertex="1" parent="JYJCYZzagZn8szXr--cS-83">
          <mxGeometry x="45" y="240" width="160" height="120" as="geometry">
            <mxRectangle x="800" y="568" width="180" height="50" as="alternateBounds" />
          </mxGeometry>
        </mxCell>
        <mxCell id="JYJCYZzagZn8szXr--cS-55" value="&lt;font style=&quot;font-size: 14px;&quot;&gt;multi-kv2&lt;br&gt;multi-pki&lt;/font&gt;" style="align=left;strokeColor=none;fillColor=none;spacingLeft=4;fontSize=12;verticalAlign=top;resizable=0;rotatable=0;part=1;html=1;" vertex="1" parent="JYJCYZzagZn8szXr--cS-54">
          <mxGeometry y="50" width="160" height="70" as="geometry" />
        </mxCell>
        <mxCell id="JYJCYZzagZn8szXr--cS-84" value="" style="group" vertex="1" connectable="0" parent="1">
          <mxGeometry x="425" y="220" width="230" height="390" as="geometry" />
        </mxCell>
        <mxCell id="JYJCYZzagZn8szXr--cS-77" value="&lt;font style=&quot;font-size: 20px;&quot;&gt;&lt;b&gt;&quot;traust&quot;&lt;/b&gt;&lt;br&gt;&lt;/font&gt;" style="shape=cube;whiteSpace=wrap;html=1;boundedLbl=1;backgroundOutline=1;darkOpacity=0.05;darkOpacity2=0.1;fillColor=#006699;gradientColor=#00293D;gradientDirection=south;shadow=0;verticalAlign=top;" vertex="1" parent="JYJCYZzagZn8szXr--cS-84">
          <mxGeometry width="230" height="390" as="geometry" />
        </mxCell>
        <mxCell id="JYJCYZzagZn8szXr--cS-18" value="&lt;font style=&quot;font-size: 18px;&quot;&gt;Authentication&lt;/font&gt;" style="swimlane;childLayout=stackLayout;horizontal=1;startSize=50;horizontalStack=0;rounded=1;fontSize=14;fontStyle=1;strokeWidth=2;resizeParent=0;resizeLast=1;shadow=0;dashed=0;align=center;arcSize=4;whiteSpace=wrap;html=1;fillColor=#006699;fontColor=#000000;gradientColor=default;" vertex="1" parent="JYJCYZzagZn8szXr--cS-84">
          <mxGeometry x="45" y="90" width="160" height="120" as="geometry" />
        </mxCell>
        <mxCell id="JYJCYZzagZn8szXr--cS-19" value="&lt;font style=&quot;font-size: 14px;&quot;&gt;approle&lt;br&gt;&lt;span style=&quot;white-space: pre;&quot;&gt;	&lt;/span&gt;localhost only&lt;/font&gt;" style="align=left;strokeColor=none;fillColor=none;spacingLeft=4;fontSize=12;verticalAlign=top;resizable=0;rotatable=0;part=1;html=1;" vertex="1" parent="JYJCYZzagZn8szXr--cS-18">
          <mxGeometry y="50" width="160" height="70" as="geometry" />
        </mxCell>
        <mxCell id="JYJCYZzagZn8szXr--cS-80" value="&lt;font style=&quot;font-size: 18px;&quot;&gt;Secret Engines&lt;/font&gt;" style="swimlane;childLayout=stackLayout;horizontal=1;startSize=50;horizontalStack=0;rounded=1;fontSize=14;fontStyle=1;strokeWidth=2;resizeParent=0;resizeLast=1;shadow=0;dashed=0;align=center;arcSize=4;whiteSpace=wrap;html=1;fillColor=#006699;swimlaneFillColor=none;strokeColor=default;gradientColor=default;gradientDirection=south;verticalAlign=middle;fontColor=#000000;" vertex="1" parent="JYJCYZzagZn8szXr--cS-84">
          <mxGeometry x="45" y="240" width="160" height="120" as="geometry">
            <mxRectangle x="800" y="568" width="180" height="50" as="alternateBounds" />
          </mxGeometry>
        </mxCell>
        <mxCell id="JYJCYZzagZn8szXr--cS-81" value="&lt;font style=&quot;font-size: 14px;&quot;&gt;kv2: traust/&lt;br style=&quot;&quot;&gt;pki: pki/issuing_ca&lt;/font&gt;" style="align=left;strokeColor=none;fillColor=none;spacingLeft=4;fontSize=12;verticalAlign=top;resizable=0;rotatable=0;part=1;html=1;" vertex="1" parent="JYJCYZzagZn8szXr--cS-80">
          <mxGeometry y="50" width="160" height="70" as="geometry" />
        </mxCell>
        <mxCell id="JYJCYZzagZn8szXr--cS-91" value="" style="group" vertex="1" connectable="0" parent="1">
          <mxGeometry x="720" y="220" width="230" height="390" as="geometry" />
        </mxCell>
        <mxCell id="JYJCYZzagZn8szXr--cS-86" value="&lt;font style=&quot;font-size: 20px;&quot;&gt;&lt;b&gt;&quot;health&quot;&lt;/b&gt;&lt;br&gt;&lt;/font&gt;" style="shape=cube;whiteSpace=wrap;html=1;boundedLbl=1;backgroundOutline=1;darkOpacity=0.05;darkOpacity2=0.1;fillColor=#006699;gradientColor=#00293D;gradientDirection=south;shadow=0;verticalAlign=top;" vertex="1" parent="JYJCYZzagZn8szXr--cS-91">
          <mxGeometry width="230" height="390" as="geometry" />
        </mxCell>
        <mxCell id="JYJCYZzagZn8szXr--cS-87" value="&lt;font style=&quot;font-size: 18px;&quot;&gt;Authentication&lt;/font&gt;" style="swimlane;childLayout=stackLayout;horizontal=1;startSize=50;horizontalStack=0;rounded=1;fontSize=14;fontStyle=1;strokeWidth=2;resizeParent=0;resizeLast=1;shadow=0;dashed=0;align=center;arcSize=4;whiteSpace=wrap;html=1;fillColor=#006699;fontColor=#000000;gradientColor=default;" vertex="1" parent="JYJCYZzagZn8szXr--cS-91">
          <mxGeometry x="45" y="90" width="160" height="120" as="geometry" />
        </mxCell>
        <mxCell id="JYJCYZzagZn8szXr--cS-88" value="&lt;font style=&quot;font-size: 14px;&quot;&gt;certificate (current)&lt;br style=&quot;&quot;&gt;approle (future?)&lt;/font&gt;" style="align=left;strokeColor=none;fillColor=none;spacingLeft=4;fontSize=12;verticalAlign=top;resizable=0;rotatable=0;part=1;html=1;" vertex="1" parent="JYJCYZzagZn8szXr--cS-87">
          <mxGeometry y="50" width="160" height="70" as="geometry" />
        </mxCell>
        <mxCell id="JYJCYZzagZn8szXr--cS-89" value="&lt;font style=&quot;font-size: 18px;&quot;&gt;Secret Engines&lt;/font&gt;" style="swimlane;childLayout=stackLayout;horizontal=1;startSize=50;horizontalStack=0;rounded=1;fontSize=14;fontStyle=1;strokeWidth=2;resizeParent=0;resizeLast=1;shadow=0;dashed=0;align=center;arcSize=4;whiteSpace=wrap;html=1;fillColor=#006699;swimlaneFillColor=none;strokeColor=default;gradientColor=default;gradientDirection=south;verticalAlign=middle;fontColor=#000000;" vertex="1" parent="JYJCYZzagZn8szXr--cS-91">
          <mxGeometry x="45" y="240" width="160" height="120" as="geometry">
            <mxRectangle x="800" y="568" width="180" height="50" as="alternateBounds" />
          </mxGeometry>
        </mxCell>
        <mxCell id="JYJCYZzagZn8szXr--cS-90" value="&lt;font style=&quot;font-size: 14px;&quot;&gt;kv2: /health/check&lt;br style=&quot;&quot;&gt;pki: pki/issuing_ca&lt;/font&gt;" style="align=left;strokeColor=none;fillColor=none;spacingLeft=4;fontSize=12;verticalAlign=top;resizable=0;rotatable=0;part=1;html=1;" vertex="1" parent="JYJCYZzagZn8szXr--cS-89">
          <mxGeometry y="50" width="160" height="70" as="geometry" />
        </mxCell>
      </root>
    </mxGraphModel>
  </diagram>
</mxfile>
